<svg viewBox="0 0 32 32" xmlns="http://www.w3.org/2000/svg">
  <style>
    /* Default: Dark Charcoal for your Cream theme */
    path.bird-body { fill: #171717; }
    path.bird-eye { fill: #fdfcf8; }

    /* Dark Mode: Off-white for your Dark theme */
    @media (prefers-color-scheme: dark) {
      path.bird-body { fill: #ededed; }
      path.bird-eye { fill: #09090b; }
    }
  </style>
  <g>
    <path class="bird-body" d="M28.555,9.571c-0.873-2.724-3.426-4.697-6.438-4.697c-3.455,0-6.3,2.593-6.707,5.939c-0.001,0-0.002,0.002-0.003,0.002 c-1.637-0.236-3.173-2.795-4.747-7.264c-3.512,4.176-3.298,8.804-2.241,10.538C6.181,14.335,1.878,13.027,0,12.003 c3.273,7.317,7.955,10.891,12.538,11.872c1.554,0.824,3.321,1.302,5.204,1.302c0.199,0,0.395-0.021,0.591-0.028L17.4,26.73 l-1.971,0.646l0.159,0.487l1.91-0.625l0.898,0.922l0.367-0.356l-0.875-0.897l1.06-1.795c0.729-0.08,1.436-0.227,2.114-0.438 l2.021,2.583l-1.713,0.635l0.178,0.48l1.943-0.721l1.789,0.799l0.209-0.467l-1.826-0.817l-2.096-2.677 c4.236-1.555,7.271-5.599,7.307-10.365c0.052-0.162,0.102-0.318,0.141-0.461C29.093,13.397,32,10.499,32,10.499L28.555,9.571z M24.757,12.034c-1.024,0-1.854-0.831-1.854-1.857c0-1.025,0.83-1.856,1.854-1.856c1.025,0,1.856,0.831,1.856,1.856 C26.613,11.203,25.782,12.034,24.757,12.034z"/>
    <path class="bird-eye" d="M24.885,9.249L24.885,9.249c0.038,0.073,0.066,0.152,0.066,0.24c0,0.284-0.23,0.515-0.514,0.515 c-0.166,0-0.307-0.083-0.399-0.203c-0.052,0.115-0.081,0.242-0.081,0.376c0,0.513,0.415,0.928,0.928,0.928 c0.514,0,0.928-0.415,0.928-0.928C25.812,9.665,25.396,9.249,24.885,9.249z"/>
  </g>
</svg>
